<?xml version="1.0" standalone="no"?>
<!DOCTYPE svg PUBLIC "-//W3C//DTD SVG 20010904//EN"
 "http://www.w3.org/TR/2001/REC-SVG-20010904/DTD/svg10.dtd">
<svg version="1.0" xmlns="http://www.w3.org/2000/svg"
 width="512.000000pt" height="512.000000pt" viewBox="0 0 512.000000 512.000000"
 preserveAspectRatio="xMidYMid meet">
<metadata>
Created by potrace 1.14, written by Peter Selinger 2001-2017
</metadata>
<g transform="translate(0.000000,512.000000) scale(0.100000,-0.100000)"
fill="#000000" stroke="none">
<path d="M2465 4749 c-360 -89 -599 -365 -898 -1034 -76 -171 -179 -432 -184
-465 -12 -84 45 -184 176 -315 45 -44 81 -83 81 -86 0 -6 -257 -184 -308 -214
-9 -5 -19 -13 -22 -16 -3 -3 -27 -20 -54 -38 -57 -39 -98 -81 -134 -136 -36
-53 -40 -63 -115 -255 -35 -91 -67 -174 -72 -185 -4 -11 -9 -24 -11 -30 -1 -5
-29 -77 -61 -160 -69 -174 -83 -226 -88 -315 -8 -145 54 -300 172 -430 17 -19
41 -47 53 -62 l21 -28 -271 0 -271 0 -24 -25 c-27 -26 -31 -51 -14 -88 20 -45
41 -47 393 -47 l334 0 44 -49 44 -49 3 -108 c2 -112 17 -167 47 -178 9 -3 574
-6 1257 -6 l1242 -1 23 26 c12 14 23 38 23 53 1 15 3 59 4 97 2 39 4 81 4 95
1 14 20 46 44 73 l42 47 333 0 333 0 24 26 c32 35 32 78 0 109 l-24 25 -256 0
c-140 0 -255 3 -255 8 0 4 17 25 38 47 157 165 224 344 195 521 -14 90 -20
108 -186 531 -63 161 -130 318 -148 349 -46 75 -98 120 -284 244 -86 58 -162
110 -169 115 -6 6 -26 20 -43 31 l-33 20 73 74 c135 138 196 240 191 318 -2
34 -81 236 -186 477 -266 611 -523 923 -838 1020 -111 33 -158 36 -245 14z
m150 -158 c22 1 80 -18 127 -42 190 -93 340 -266 508 -586 l41 -78 -335 335
c-194 194 -344 336 -357 338 -23 4 -39 -12 -39 -38 0 -9 187 -202 415 -430
l415 -415 36 -83 c36 -85 38 -97 13 -87 -8 3 -198 189 -423 414 -346 346 -412
408 -429 402 -11 -4 -24 -17 -28 -28 -6 -17 17 -44 136 -164 79 -79 141 -148
138 -154 -4 -5 -2 -7 2 -2 8 7 415 -390 415 -404 0 -3 -22 0 -49 7 -27 7 -60
14 -73 16 -14 2 -112 91 -264 242 -132 131 -248 243 -257 248 -22 12 -61 -26
-49 -48 5 -8 98 -105 208 -216 l199 -200 -69 6 -70 6 -103 102 c-120 119 -126
123 -147 102 -27 -27 -18 -46 56 -121 54 -55 68 -73 53 -73 -62 1 -415 -10
-440 -14 -16 -2 -57 -6 -90 -10 -67 -8 -87 -11 -195 -31 -41 -8 -86 -17 -100
-19 -14 -3 -65 -19 -114 -35 -49 -17 -91 -30 -92 -28 -2 1 32 81 75 177 97
220 199 413 213 404 7 -5 8 -2 3 5 -4 8 18 50 59 111 141 209 289 333 456 383
77 22 91 24 123 16 15 -4 30 -8 32 -8z m474 -1211 c16 -6 32 -17 34 -23 5 -14
-29 -146 -68 -267 -55 -167 -124 -290 -162 -290 -7 0 -13 -4 -13 -9 0 -17
-142 -80 -229 -102 -57 -14 -97 -19 -127 -14 -24 3 -45 6 -46 5 -7 -2 -119 40
-165 63 -88 42 -149 93 -173 143 -47 101 -122 317 -134 385 -3 19 -8 46 -12
60 -8 35 16 52 80 59 28 3 261 4 518 4 342 -1 476 -5 497 -14z m-309 -1064 c0
-8 3 -8 8 0 10 14 592 15 592 0 0 -8 3 -8 8 0 10 14 185 14 194 0 6 -8 8 -8 8
0 0 7 24 11 66 10 95 -3 97 -6 90 -181 -3 -77 -8 -221 -11 -320 -6 -196 -11
-345 -21 -615 -3 -96 -7 -216 -8 -267 -1 -51 -5 -95 -9 -99 -7 -7 -2275 -10
-2281 -3 -3 2 -7 96 -11 209 -3 113 -8 250 -10 305 -2 55 -7 195 -10 310 -4
116 -8 246 -10 290 -4 88 -7 298 -6 331 1 12 11 25 23 31 31 13 1388 12 1388
-1z m915 -1681 l0 -40 -1136 -3 -1137 -2 -3 44 -4 43 1140 -1 1140 -1 0 -40z"/>
<path d="M2571 3192 c1 -67 5 -123 8 -123 3 -1 29 -3 58 -4 l52 -3 -36 76
c-19 43 -42 95 -50 117 -29 73 -34 63 -32 -63z"/>
<path d="M2465 2090 c-169 -35 -287 -138 -350 -305 -14 -37 -16 -50 -20 -130
-4 -96 20 -184 70 -259 32 -48 33 -49 14 -69 -25 -27 -25 -88 -1 -118 16 -19
29 -22 87 -24 65 -1 69 -2 72 -25 5 -38 11 -93 12 -113 1 -16 15 -17 198 -15
l196 3 4 45 c2 25 5 56 8 70 2 14 4 27 4 30 1 4 28 5 61 4 50 -2 65 1 86 19
30 27 35 84 10 122 -17 26 -17 28 8 66 56 84 70 136 70 254 1 107 -1 112 -37
187 -66 135 -172 220 -317 255 -37 8 -139 10 -175 3z m-120 -475 c33 -8 80
-18 105 -22 42 -8 45 -10 43 -37 -5 -59 -73 -124 -128 -121 -84 5 -138 54
-139 128 -1 60 9 81 37 73 12 -4 49 -13 82 -21z m513 13 c17 -17 15 -78 -6
-117 -43 -86 -150 -103 -214 -33 -29 31 -49 84 -39 101 4 6 23 13 42 15 45 5
84 13 144 30 64 18 59 18 73 4z m-336 -292 c-4 -52 -18 -76 -42 -76 -26 0 -30
43 -9 98 6 17 15 22 32 20 19 -3 22 -8 19 -42z m117 -1 c16 -54 9 -78 -21 -73
-17 2 -25 14 -34 50 -8 33 -8 50 -1 57 23 23 43 11 56 -34z"/>
</g>
</svg>
