<?xml version="1.0" standalone="no"?>
<!DOCTYPE svg PUBLIC "-//W3C//DTD SVG 20010904//EN"
 "http://www.w3.org/TR/2001/REC-SVG-20010904/DTD/svg10.dtd">
<svg version="1.0" xmlns="http://www.w3.org/2000/svg"
 width="424.000000pt" height="424.000000pt" viewBox="0 0 424.000000 424.000000"
 preserveAspectRatio="xMidYMid meet">
<metadata>
Created by potrace 1.14, written by Peter Selinger 2001-2017
</metadata>
<g transform="translate(0.000000,424.000000) scale(0.100000,-0.100000)"
fill="#000000" stroke="none">
<path d="M2032 3949 c-57 -16 -132 -49 -214 -95 -44 -24 -170 -153 -230 -234
-105 -143 -232 -386 -343 -655 -101 -244 -104 -254 -100 -297 6 -56 54 -130
144 -223 40 -42 70 -80 65 -84 -5 -5 -83 -59 -174 -121 -91 -62 -178 -125
-193 -139 -49 -44 -82 -101 -127 -216 -23 -60 -46 -119 -51 -130 -29 -66 -133
-340 -150 -395 -53 -174 -4 -338 151 -509 16 -19 28 -36 25 -39 -3 -3 -105 -6
-226 -6 -219 -1 -221 -1 -240 -25 -10 -13 -19 -32 -19 -42 0 -24 34 -59 58
-60 9 0 139 -1 287 -2 l271 -2 32 -35 c38 -42 40 -50 45 -164 5 -141 -125
-126 1083 -126 1021 0 1034 0 1054 20 11 11 20 30 21 43 1 38 6 151 8 169 0 9
17 34 37 55 l36 38 276 1 276 1 23 28 c27 30 24 60 -9 86 -16 13 -53 15 -225
15 -113 -1 -207 2 -209 6 -4 7 7 22 69 92 43 48 94 145 112 211 31 119 16 198
-89 465 -32 80 -75 190 -97 244 -21 55 -39 103 -39 107 0 5 -16 36 -37 70 -35
60 -80 112 -116 134 -9 6 -88 59 -176 120 l-160 109 79 82 c96 101 140 173
140 232 0 85 -216 576 -352 802 -133 219 -248 340 -398 415 -129 65 -221 80
-318 54z m200 -138 c165 -57 315 -214 453 -474 26 -49 45 -90 43 -93 -3 -2
-126 117 -274 265 -148 147 -279 273 -291 279 -17 9 -22 9 -27 -4 -3 -9 -6
-19 -6 -23 0 -5 155 -164 344 -354 283 -283 349 -355 369 -399 37 -82 42 -100
23 -96 -9 1 -170 156 -358 344 -337 334 -378 368 -378 314 0 -11 110 -129 268
-288 147 -148 278 -280 291 -295 l24 -26 -24 5 c-13 2 -44 9 -68 13 -47 10
-33 -3 -311 274 -89 89 -145 137 -159 137 -49 0 -20 -42 139 -200 88 -88 160
-165 160 -173 0 -11 -10 -12 -53 -6 -49 8 -59 15 -138 94 -55 55 -93 85 -107
85 -39 0 -26 -38 33 -97 30 -30 55 -58 55 -62 0 -3 -62 -6 -138 -7 -179 -1
-323 -14 -452 -40 -14 -3 -36 -7 -50 -9 -14 -2 -72 -18 -130 -34 -57 -16 -106
-29 -107 -28 -4 5 86 203 157 342 95 190 175 310 270 406 83 84 143 123 239
156 73 24 119 23 203 -6z m340 -1001 c26 -12 29 -27 12 -82 -3 -9 -7 -27 -9
-39 -12 -59 -63 -201 -111 -305 -14 -28 -122 -110 -140 -104 -3 1 -10 -2 -13
-8 -10 -15 -101 -42 -162 -49 -131 -13 -365 102 -383 189 -3 12 -21 57 -46
113 -13 30 -48 146 -55 180 -19 96 -19 92 11 106 40 19 855 18 896 -1z m532
-889 c16 -14 16 -68 1 -496 -3 -77 -7 -223 -10 -325 -10 -310 -14 -402 -19
-407 -7 -8 -1907 -9 -1912 -2 -1 3 -6 104 -9 225 -3 120 -8 269 -10 329 -3 61
-7 180 -10 265 -3 85 -7 208 -10 273 -4 102 -2 120 13 135 16 16 82 17 984 17
782 -1 969 -3 982 -14z m-29 -1393 c2 -38 -9 -52 -39 -46 -14 3 -26 2 -26 -1
0 -5 -716 -6 -830 -1 -14 0 -168 0 -342 0 -174 -1 -322 1 -327 5 -6 3 -11 3
-11 -2 0 -7 -119 -8 -292 -4 -37 1 -38 2 -38 40 l0 39 952 -2 952 -1 1 -27z"/>
<path d="M2135 2658 c2 -51 4 -98 4 -104 1 -7 17 -10 42 -8 48 4 60 11 39 24
-8 6 -12 10 -7 10 4 0 -4 21 -17 48 -13 26 -32 64 -41 85 -9 20 -18 37 -20 37
-3 0 -3 -42 0 -92z"/>
<path d="M1914 1766 c-137 -92 -233 -269 -234 -428 0 -67 26 -171 61 -239 45
-90 145 -190 232 -232 124 -61 214 -70 337 -36 100 27 173 70 243 142 60 62
104 132 88 141 -5 4 -38 -1 -73 -10 -47 -12 -91 -15 -176 -12 -101 5 -119 9
-179 38 -123 61 -232 198 -263 333 -15 64 -12 192 6 259 8 33 14 64 12 69 -2
5 -26 -6 -54 -25z"/>
</g>
</svg>
