<?xml version="1.0" standalone="no"?>
<!DOCTYPE svg PUBLIC "-//W3C//DTD SVG 20010904//EN"
 "http://www.w3.org/TR/2001/REC-SVG-20010904/DTD/svg10.dtd">
<svg version="1.0" xmlns="http://www.w3.org/2000/svg"
 width="750.000000pt" height="750.000000pt" viewBox="0 0 750.000000 750.000000"
 preserveAspectRatio="xMidYMid meet">
<metadata>
Created by potrace 1.14, written by Peter Selinger 2001-2017
</metadata>
<g transform="translate(0.000000,750.000000) scale(0.100000,-0.100000)"
fill="#000000" stroke="none">
<path d="M1754 7472 c-72 -64 -191 -153 -284 -215 -91 -60 -142 -117 -169
-188 -13 -35 -38 -98 -56 -139 -19 -41 -50 -118 -70 -170 -20 -52 -47 -114
-61 -137 -13 -23 -29 -65 -34 -93 -5 -28 -17 -66 -25 -83 -28 -58 -265 -290
-379 -372 -15 -11 -46 -34 -69 -51 -84 -63 -404 -194 -473 -194 -8 0 -14 -5
-14 -11 0 -12 98 -7 185 9 165 32 450 197 602 350 34 34 65 62 68 62 13 0 2
-47 -34 -147 -22 -59 -46 -121 -55 -138 -9 -16 -16 -40 -16 -51 0 -12 -11 -76
-25 -144 -28 -137 -33 -287 -13 -405 22 -131 19 -149 -44 -260 -32 -55 -69
-118 -83 -140 l-26 -40 5 120 c9 205 69 529 131 704 19 54 20 86 1 51 -77
-145 -166 -583 -166 -819 l0 -116 -51 -85 c-28 -47 -55 -96 -60 -109 -35 -88
-333 -404 -413 -437 -53 -22 -61 -40 -14 -30 32 6 146 66 170 89 7 6 31 25 53
42 62 45 159 141 248 243 l81 94 16 -84 c9 -46 40 -149 68 -229 l52 -145 0
-142 c0 -122 2 -144 16 -149 33 -12 -7 -133 -80 -243 -127 -193 -136 -202
-246 -283 l-25 -18 44 5 c55 6 203 82 299 153 40 30 74 53 76 52 1 -2 8 -24
16 -49 8 -25 35 -88 61 -141 46 -93 110 -173 183 -227 l28 -22 -25 -43 c-35
-60 -95 -138 -151 -197 -26 -27 -45 -50 -41 -50 17 0 54 26 86 62 61 66 205
268 248 348 23 42 41 66 41 55 0 -19 -43 -217 -56 -257 -3 -10 -1 -18 5 -18
14 0 39 93 57 212 25 167 36 217 50 229 19 15 20 8 34 -151 7 -74 23 -189 37
-255 35 -169 38 -198 19 -214 -9 -8 -16 -20 -16 -29 0 -13 2 -13 18 1 23 21
32 21 48 0 12 -16 13 -15 14 15 0 21 15 59 40 100 60 101 99 230 115 382 9 81
15 104 24 94 17 -17 62 -170 72 -239 18 -132 39 -233 65 -322 27 -92 27 -97
-3 -233 -5 -23 -4 -24 11 -10 17 17 47 143 65 275 17 119 42 278 48 295 8 27
35 -40 45 -110 4 -36 13 -121 19 -190 10 -124 8 -150 -21 -335 -13 -82 -48
-311 -54 -358 -3 -20 -1 -37 4 -37 8 0 45 55 92 140 39 69 79 168 98 245 30
117 89 325 95 336 16 25 25 -10 25 -96 0 -52 4 -97 10 -100 6 -3 10 3 10 14 0
28 11 52 21 45 5 -3 9 -18 9 -33 0 -17 10 -37 26 -52 l27 -24 -7 38 c-9 50 8
76 35 51 15 -13 23 -14 54 -4 30 10 43 9 77 -5 23 -9 54 -26 68 -38 15 -12 49
-35 75 -52 208 -130 211 -133 219 -210 4 -36 2 -93 -3 -128 -6 -34 -12 -82
-15 -107 l-5 -45 16 35 c8 19 18 55 22 79 3 24 12 46 19 49 9 3 12 -21 12 -98
0 -92 -2 -103 -23 -124 -13 -13 -100 -61 -193 -107 -232 -114 -380 -194 -439
-238 -27 -21 -86 -57 -130 -81 -44 -24 -99 -58 -122 -75 -23 -16 -92 -59 -155
-95 -68 -39 -136 -87 -170 -121 l-57 -56 4 -141 4 -141 -42 -83 c-27 -54 -52
-88 -69 -98 -15 -8 -29 -12 -33 -9 -3 3 12 33 33 65 22 32 52 82 68 109 51 91
-4 28 -84 -95 -91 -140 -105 -156 -163 -186 -62 -31 -114 -103 -123 -167 -14
-109 -60 -170 -286 -386 -97 -92 -165 -149 -188 -157 -31 -11 539 -13 3341
-14 l3377 0 0 666 0 665 -25 33 c-14 18 -25 38 -25 45 0 6 -30 40 -66 74 -37
34 -81 83 -99 110 -18 26 -113 132 -213 235 -203 211 -223 233 -272 293 -49
60 -68 76 -116 99 -34 17 -43 27 -48 55 -9 47 -35 60 -93 46 -24 -7 -49 -9
-55 -5 -7 5 -9 42 -5 117 3 60 2 119 -3 132 -11 28 -90 60 -187 75 -243 37
-273 50 -273 114 0 17 -7 42 -16 54 -21 30 -6 27 36 -8 33 -29 60 -39 60 -22
0 5 -23 47 -51 93 -78 128 -102 180 -89 193 8 8 18 1 38 -24 58 -76 102 -109
102 -78 0 7 -11 28 -23 47 -97 147 -129 203 -134 234 -5 31 8 132 24 190 6 22
22 22 30 0 21 -59 138 -203 164 -203 13 0 12 1 -82 135 -72 102 -109 179 -109
225 0 39 20 29 73 -37 115 -144 194 -232 257 -285 107 -90 202 -148 240 -148
31 0 25 17 -28 79 -51 58 -112 145 -112 156 0 4 11 0 25 -9 39 -26 29 0 -16
41 -45 41 -90 103 -107 148 -6 17 -26 71 -45 120 -74 192 -144 442 -128 458
13 13 10 16 56 -58 60 -96 115 -165 190 -240 63 -62 75 -81 109 -165 21 -52
44 -108 51 -125 24 -53 17 1 -14 103 -16 54 -41 151 -56 217 -15 66 -38 148
-51 182 -13 34 -24 66 -24 71 0 6 -15 46 -34 89 -43 102 -50 123 -37 123 6 0
25 -16 43 -36 18 -20 46 -49 61 -65 36 -38 43 -58 52 -149 4 -41 11 -84 16
-95 10 -25 11 -13 9 78 l-1 68 34 -23 c20 -13 53 -38 75 -56 75 -61 52 -16
-38 73 -65 66 -91 99 -98 127 -6 21 -6 40 -2 43 4 3 46 -19 93 -48 174 -107
222 -129 382 -174 50 -14 133 -40 185 -59 52 -19 120 -41 150 -49 63 -17 146
-20 155 -5 4 6 -7 10 -27 10 -52 1 -125 30 -228 92 -93 56 -125 81 -186 149
-16 19 -49 50 -72 71 l-42 36 19 44 c37 84 56 204 56 360 l0 146 115 -58 c129
-66 209 -90 301 -90 59 0 129 16 129 31 0 3 -33 9 -72 12 -40 3 -93 14 -118
25 -117 50 -330 214 -380 292 -18 28 -56 121 -86 208 -29 86 -75 208 -103 271
-28 63 -48 117 -45 120 3 3 22 -12 41 -34 80 -92 190 -230 223 -279 19 -29 53
-76 75 -103 22 -27 60 -82 85 -121 24 -40 48 -72 53 -72 13 0 -66 141 -124
222 -47 66 -88 142 -104 198 -10 34 -84 180 -132 260 -67 113 -118 182 -202
273 -59 64 -80 93 -76 106 4 13 -2 22 -22 30 -38 16 -76 49 -69 59 3 5 56 -6
118 -24 151 -43 239 -62 323 -69 65 -6 68 -5 45 9 -14 8 -97 38 -185 66 -180
59 -215 74 -215 94 0 11 7 12 33 6 58 -15 228 -25 394 -23 230 2 411 45 473
111 57 61 57 60 -12 55 -35 -3 -103 0 -153 6 -49 7 -127 16 -171 21 -118 12
-378 80 -444 115 -14 8 -42 16 -62 20 -41 6 -58 23 -37 36 7 4 47 8 89 8 41 0
107 6 145 15 73 15 131 34 124 40 -2 2 -68 -1 -146 -7 -79 -5 -168 -6 -199 -2
-49 6 -58 11 -72 37 -60 110 -183 267 -295 376 -73 71 -119 105 -82 61 11 -13
25 -28 31 -34 98 -95 330 -403 315 -418 -12 -12 -172 54 -217 88 -49 37 -94
102 -161 230 -32 60 -81 146 -110 190 -49 75 -62 105 -46 105 3 0 37 -22 75
-50 38 -27 71 -50 73 -50 32 0 335 -272 386 -346 17 -24 35 -42 40 -39 10 7
-10 40 -78 124 -24 29 -54 77 -67 105 -45 97 -217 258 -417 389 l-86 57 -124
0 -124 0 98 -56 c101 -59 132 -89 220 -215 91 -132 124 -199 97 -199 -5 0 -10
4 -10 8 0 18 -330 361 -417 435 l-33 27 -1887 0 -1888 -1 -31 -27z m-504 -691
c-33 -67 -60 -106 -60 -88 0 12 33 80 57 121 45 74 47 53 3 -33z m-247 -857
c-2 -24 -18 -145 -38 -290 -16 -115 -55 -268 -74 -287 -21 -21 -25 6 -12 106
16 134 38 254 63 347 11 41 25 92 31 113 10 38 34 47 30 11z m5561 -105 c31
-33 56 -65 56 -71 0 -5 8 -22 18 -36 43 -63 175 -403 170 -436 -5 -31 -92 105
-144 226 -23 53 -72 155 -108 228 -36 72 -66 135 -66 141 0 20 20 6 74 -52z
m-2302 -286 c29 -33 211 -394 202 -402 -5 -5 -24 -11 -41 -14 -37 -7 -41 -1
-90 143 -14 41 -47 125 -74 188 -27 63 -49 116 -49 118 0 8 35 -14 52 -33z
m-291 -355 c74 -61 143 -116 153 -124 11 -7 18 -15 15 -17 -2 -2 -35 -14 -74
-26 l-70 -21 -47 52 c-26 29 -48 56 -48 60 0 3 -16 26 -37 50 -33 40 -83 135
-83 159 0 17 51 -19 191 -133z m579 40 c23 -44 27 -58 17 -66 -7 -6 -17 -8
-23 -4 -12 8 -40 84 -49 132 -6 34 -5 34 10 15 9 -11 30 -45 45 -77z m-1017
-9 c45 -23 105 -56 132 -74 67 -43 210 -164 210 -177 0 -6 -31 -21 -68 -35
-38 -13 -91 -38 -118 -54 -28 -16 -54 -29 -58 -29 -5 0 -17 17 -26 38 -10 20
-51 104 -91 185 -65 130 -86 187 -69 187 3 0 42 -19 88 -41z m-64 -159 c27
-74 61 -162 74 -195 18 -42 22 -65 16 -77 -26 -49 -60 22 -128 266 -31 110
-39 169 -22 151 5 -6 32 -71 60 -145z m1153 25 c27 -42 33 -59 33 -107 -1 -63
-2 -65 -29 -70 -14 -2 -22 8 -36 47 -32 91 -48 173 -37 184 15 15 33 1 69 -54z
m-415 -2 c17 -7 6 -23 -14 -23 -13 0 -71 39 -108 73 -5 5 17 -3 50 -18 33 -15
66 -29 72 -32z m-3242 14 c-2 -7 -16 -66 -30 -132 -15 -66 -42 -178 -60 -250
-30 -116 -48 -222 -62 -367 -3 -27 -9 -48 -14 -48 -5 0 -9 7 -9 16 0 9 -11 48
-25 85 -26 72 -65 248 -65 292 0 28 125 236 189 317 12 14 21 29 21 34 0 18
42 76 50 71 5 -3 7 -11 5 -18z m3560 -67 c44 -90 42 -100 -25 -103 -31 -1 -43
2 -46 13 -1 8 -14 45 -28 82 l-25 67 27 10 c51 18 57 14 97 -69z m2050 -27
c35 -72 114 -286 110 -294 -3 -4 8 -36 25 -71 16 -34 30 -69 30 -77 0 -11 3
-11 15 -1 10 8 12 18 6 29 -5 9 -19 52 -31 96 -12 44 -46 131 -76 194 -29 62
-52 117 -49 121 3 5 49 -13 103 -39 53 -27 119 -56 145 -66 26 -10 53 -27 59
-39 15 -27 3 -303 -15 -376 -8 -30 -18 -72 -21 -92 -4 -21 -11 -38 -16 -38
-18 0 -81 87 -94 130 -7 25 -19 45 -26 45 -21 0 -130 206 -124 233 3 14 -4 34
-19 55 -35 47 -147 263 -140 270 3 3 27 -5 53 -18 34 -17 52 -35 65 -62z
m-2220 -17 c68 -49 79 -70 38 -74 -24 -2 -50 14 -153 95 -7 6 23 23 40 22 8 0
42 -20 75 -43z m1226 -14 c46 -59 73 -107 104 -185 39 -94 15 -92 -42 4 -116
197 -131 231 -104 229 3 -1 22 -22 42 -48z m-1320 -18 c32 -25 59 -48 59 -52
0 -4 -39 -17 -88 -30 -48 -13 -109 -32 -137 -44 -27 -11 -61 -23 -75 -26 -23
-5 -24 -4 -10 13 32 39 -13 7 -110 -78 -100 -89 -129 -127 -66 -88 18 12 41
21 51 21 9 0 39 19 66 43 66 58 149 107 193 114 59 9 42 -11 -44 -51 -44 -20
-101 -53 -127 -73 -25 -19 -61 -42 -79 -49 -18 -7 -42 -27 -54 -44 -25 -35
-40 -38 -47 -10 -3 11 -9 20 -13 20 -5 0 -29 33 -54 73 -45 71 -46 72 -26 89
11 9 53 29 93 44 39 15 81 33 92 40 11 7 39 20 61 29 41 16 42 16 79 -9 52
-35 61 -33 36 10 -12 20 -20 38 -19 40 6 5 143 63 151 64 5 0 35 -21 68 -46z
m312 -49 c-2 -11 -89 -35 -97 -27 -13 13 -4 31 17 35 36 7 82 3 80 -8z m-138
-16 c10 -15 -1 -23 -20 -15 -9 3 -13 10 -10 16 8 13 22 13 30 -1z m-58 -25 c5
-16 -95 -30 -109 -16 -8 8 0 14 23 21 42 12 81 10 86 -5z m-777 -29 c0 -8 -7
-15 -15 -15 -8 0 -15 7 -15 15 0 8 7 15 15 15 8 0 15 -7 15 -15z m-2630 -182
c0 -80 5 -174 11 -208 9 -56 8 -73 -20 -186 -39 -157 -74 -262 -89 -267 -15
-5 -17 114 -3 123 6 3 6 18 1 36 -5 16 -7 36 -5 42 2 7 9 76 14 154 6 77 15
161 20 185 5 23 15 77 21 118 32 199 50 200 50 3z m3760 131 c11 -12 11 -33 1
-110 -14 -108 -28 -154 -44 -154 -8 0 -12 26 -12 78 -1 58 -6 89 -24 129 -13
28 -20 57 -16 62 10 17 81 13 95 -5z m758 -34 c15 -23 22 -49 24 -89 1 -43 2
-47 5 -18 2 20 10 37 16 37 7 0 26 -20 44 -43 18 -23 43 -53 56 -67 13 -14 28
-33 33 -43 15 -26 -9 -153 -33 -180 -48 -53 -27 -68 26 -18 29 27 31 33 31
100 0 39 4 71 8 71 11 0 46 -39 61 -67 17 -34 14 -178 -4 -193 -8 -7 -15 -22
-15 -34 0 -13 -15 -44 -33 -70 -46 -64 -187 -207 -198 -200 -5 3 -9 52 -9 110
l0 104 50 48 c28 27 50 57 50 68 0 15 -10 9 -46 -28 -25 -27 -47 -48 -50 -48
-14 0 2 37 40 92 53 77 78 126 73 141 -3 10 -59 -67 -93 -128 -22 -40 -32 -26
-39 57 -3 46 -15 162 -26 258 -10 96 -19 176 -19 178 0 13 29 -10 48 -38z
m-3460 -54 c29 -47 52 -89 52 -94 0 -15 -42 -22 -57 -10 -26 21 -70 188 -49
188 2 0 26 -38 54 -84z m2457 49 c0 -13 -8 -21 -22 -23 -19 -3 -23 1 -23 23 0
22 4 26 23 23 14 -2 22 -10 22 -23z m-770 -86 c62 -82 73 -104 65 -119 -6 -10
-10 -28 -10 -40 0 -20 2 -20 30 8 17 17 30 34 30 38 0 11 31 44 42 44 14 0 9
-19 -9 -38 -20 -20 -83 -143 -83 -161 0 -6 -7 -11 -15 -11 -23 0 -62 78 -110
218 -41 119 -48 162 -24 162 5 0 43 -45 84 -101z m-91 -3 c19 -58 20 -66 6
-66 -17 0 -64 106 -56 126 6 15 9 16 20 3 7 -8 21 -36 30 -63z m-1185 27 c7
-15 8 -30 3 -35 -11 -11 -28 9 -37 45 -6 22 -4 26 8 22 8 -4 20 -18 26 -32z
m3317 2 c19 -46 22 -77 7 -82 -16 -6 -43 49 -43 87 0 40 18 38 36 -5z m-1683
-99 c-8 -64 14 -156 36 -156 10 0 24 7 31 15 7 8 18 15 25 15 7 0 18 7 25 15
7 8 28 17 49 20 20 4 55 13 79 22 42 15 44 14 68 -7 13 -13 26 -31 30 -42 9
-30 39 -21 57 17 9 20 17 42 17 51 0 10 7 13 26 8 18 -5 31 0 49 16 15 14 30
20 41 16 22 -8 13 -54 -22 -114 -33 -56 -89 -81 -210 -92 -49 -5 -98 -12 -108
-16 -12 -5 -23 -2 -30 7 -28 36 -43 41 -70 24 -19 -13 -24 -23 -20 -39 3 -14
-1 -28 -10 -35 -25 -21 -19 -33 14 -26 37 8 39 -2 3 -16 -16 -6 -23 -13 -17
-19 6 -6 28 -3 59 9 62 23 215 51 215 40 0 -18 37 -8 60 16 14 15 52 34 92 46
66 20 111 49 54 35 -18 -4 -25 -3 -21 4 3 5 23 10 44 10 32 0 44 7 94 61 32
33 63 59 70 56 6 -2 19 -32 28 -68 42 -160 90 -348 100 -394 15 -66 29 -80 29
-29 0 38 -54 256 -84 343 -9 24 -16 47 -16 52 0 19 17 8 30 -18 19 -41 147
-357 180 -443 47 -127 69 -167 110 -206 32 -30 37 -41 29 -56 -5 -10 -20 -18
-33 -18 -13 0 -29 -6 -35 -14 -11 -13 -50 -117 -55 -146 -6 -37 -23 -76 -107
-245 -50 -99 -107 -203 -127 -231 -269 -371 -319 -410 -621 -485 -91 -22 -186
-47 -211 -55 -25 -7 -94 -29 -155 -49 -60 -19 -159 -50 -220 -69 -60 -19 -144
-48 -185 -65 -41 -17 -81 -31 -88 -31 -18 0 -313 158 -399 214 -39 25 -74 46
-77 46 -3 0 -47 30 -98 67 -220 158 -349 307 -477 555 -22 42 -63 114 -90 160
-48 82 -131 251 -145 296 -5 13 -3 22 4 22 16 0 112 -51 135 -71 19 -17 174
-89 224 -104 l24 -7 -27 35 c-15 20 -31 37 -34 39 -15 7 -101 116 -127 161
-33 57 -29 76 15 69 40 -6 146 17 161 34 6 8 24 14 39 14 15 0 35 9 45 20 9
10 34 25 54 31 66 21 156 67 185 94 27 25 28 30 23 82 -3 31 -11 61 -16 66
-18 18 -12 27 18 27 16 0 31 6 34 13 5 14 21 -3 71 -78 18 -27 67 -86 110
-130 85 -88 92 -78 25 34 -22 34 -39 66 -39 70 0 3 -16 30 -35 58 -32 47 -43
73 -31 73 3 0 46 -42 98 -93 61 -62 133 -120 208 -169 115 -75 154 -90 107
-39 -32 34 -107 147 -107 160 0 16 6 14 50 -14 22 -14 42 -25 45 -25 9 0 113
-75 147 -106 52 -47 217 -158 224 -151 10 10 -32 117 -103 261 -62 127 -72
156 -53 156 6 0 10 -4 10 -9 0 -18 273 -301 290 -301 19 0 10 23 -27 68 -23
28 -31 43 -20 39 28 -11 19 7 -25 49 -62 58 -80 81 -70 88 8 4 109 -56 122
-74 23 -30 285 -180 315 -180 4 0 -4 13 -17 29 -12 17 -57 73 -98 126 -41 54
-97 124 -125 157 -86 104 -135 171 -135 184 0 7 10 18 21 25 42 22 110 92 144
150 40 65 98 121 119 113 9 -4 12 -17 9 -48z m727 -13 c-1 -18 -30 -44 -40
-38 -8 5 -6 13 6 26 17 19 34 25 34 12z m-2288 -30 c25 -29 95 -146 103 -172
7 -24 7 -24 -46 -17 -58 7 -73 20 -97 85 -19 49 -25 88 -18 106 7 20 39 19 58
-2z m75 -20 c37 -48 103 -148 103 -157 0 -15 -22 -4 -47 24 -37 42 -103 142
-103 158 0 22 18 13 47 -25z m-426 0 c29 -25 31 -25 20 -5 -7 14 -8 22 -2 22
15 0 122 -132 118 -144 -4 -12 -152 -40 -171 -33 -17 7 -76 132 -76 163 0 21
5 24 39 24 28 0 49 -8 72 -27z m-95 -130 c15 -20 19 -53 6 -53 -15 0 -32 24
-32 47 0 27 8 29 26 6z m4326 -35 c23 -21 48 -58 48 -72 0 -3 -7 -6 -15 -6
-18 0 -77 78 -69 91 7 12 7 12 36 -13z m-4048 -4 c9 -8 14 -20 11 -25 -9 -13
-182 -11 -190 2 -10 15 -5 18 56 28 82 13 106 12 123 -5z m3796 -36 c22 -29
58 -75 80 -103 22 -27 62 -95 89 -150 102 -207 119 -262 55 -177 -16 20 -41
51 -55 67 -26 28 -58 67 -76 90 -5 6 -33 41 -63 80 -58 75 -75 113 -86 194 -9
66 4 66 56 -1z m-3555 13 c3 -5 0 -13 -5 -16 -15 -9 -60 3 -60 15 0 13 57 13
65 1z m-475 -16 c0 -9 -7 -18 -16 -22 -18 -7 -39 11 -30 26 11 17 46 13 46 -4z
m971 -131 c52 -39 101 -79 110 -90 30 -36 101 -156 87 -148 -94 55 -352 303
-342 328 6 14 8 14 29 -1 12 -10 65 -50 116 -89z m-276 46 c16 -16 26 -33 22
-36 -8 -8 -77 43 -77 57 0 18 27 8 55 -21z m-141 -16 c19 -18 20 -30 5 -39
-14 -10 -49 24 -42 41 7 18 18 18 37 -2z m2580 7 c8 -13 38 -121 43 -158 4
-25 1 -33 -10 -33 -9 0 -18 8 -21 18 -7 23 -36 161 -36 173 0 11 17 12 24 0z
m-3976 -177 c3 -95 -2 -175 -13 -254 -17 -113 -47 -258 -60 -292 -14 -35 13
-17 29 20 16 37 16 15 1 -35 -5 -14 -3 -23 3 -23 16 0 46 89 77 225 15 66 31
124 36 130 14 14 11 -111 -5 -201 -22 -125 -131 -435 -153 -434 -13 1 -82 56
-102 81 -44 57 -85 140 -122 251 l-40 118 51 58 c72 80 223 359 264 485 3 10
12 17 19 15 8 -3 13 -44 15 -144z m978 67 c32 -92 72 -145 114 -151 32 -5 35
-8 33 -37 -3 -28 1 -32 28 -38 41 -9 29 -18 -64 -49 -60 -20 -83 -24 -98 -16
-11 6 -18 17 -17 24 2 8 -8 22 -21 33 -12 10 -33 48 -46 83 -12 36 -32 93 -44
128 -30 83 -25 94 41 90 l52 -3 22 -64z m3221 -191 c4 -83 2 -113 -10 -142
-19 -45 -58 -68 -82 -48 -14 11 -17 10 -22 -8 -6 -25 -31 -29 -39 -7 -5 12 -9
12 -30 -1 -23 -15 -24 -15 -34 11 -5 14 -10 60 -10 100 0 62 4 80 24 110 14
20 26 41 28 47 7 21 27 -2 34 -39 4 -22 2 -43 -5 -54 -14 -23 -14 -79 0 -99 8
-12 9 -10 4 8 -8 28 1 72 15 72 6 0 10 -16 10 -35 0 -24 5 -35 14 -35 8 0 22
-7 31 -16 9 -9 19 -13 23 -9 4 4 7 77 8 163 0 87 1 162 3 167 8 27 32 -92 38
-185z m-2720 134 c15 -41 -60 -96 -177 -129 -52 -14 -60 -14 -110 3 -46 16
-56 23 -58 45 -3 23 2 27 35 36 82 21 125 17 159 -14 34 -32 48 -28 52 16 4
54 9 59 52 59 28 0 43 -5 47 -16z m-1110 -364 c40 -92 46 -114 46 -175 1 -103
-57 -343 -117 -481 l-25 -59 -2 80 c-1 44 0 85 1 90 4 16 9 312 10 510 l0 179
20 -20 c11 -11 41 -67 67 -124z m760 124 c-3 -3 -12 -4 -19 -1 -8 3 -5 6 6 6
11 1 17 -2 13 -5z m3553 -123 c5 -19 7 -38 4 -43 -9 -14 -41 20 -47 50 -3 15
-9 41 -12 57 l-6 30 25 -30 c15 -16 30 -45 36 -64z m-34 -76 c21 -51 24 -74
22 -153 -3 -101 -19 -126 -30 -47 -4 28 -14 91 -22 140 -9 50 -16 98 -16 108
0 35 22 11 46 -48z m-558 -11 c-5 -28 -28 -29 -28 -1 0 13 3 27 7 31 10 10 25
-10 21 -30z m12 -54 c0 -5 -4 -10 -10 -10 -5 0 -10 5 -10 10 0 6 5 10 10 10 6
0 10 -4 10 -10z m-60 -203 c0 -18 -87 -110 -100 -105 -6 2 -11 7 -11 11 1 4 1
19 1 33 0 16 13 39 35 61 29 29 37 33 55 23 11 -6 20 -16 20 -23z m250 9 c0
-14 -10 -30 -25 -40 -53 -35 -82 -9 -39 35 35 36 64 39 64 5z m-92 -79 c3 -12
-4 -17 -22 -17 -28 0 -33 9 -14 28 15 15 32 10 36 -11z m-88 -7 c0 -13 -48
-36 -56 -27 -4 4 -1 13 6 22 14 17 50 20 50 5z m260 -11 c0 -5 -7 -9 -15 -9
-15 0 -20 12 -9 23 8 8 24 -1 24 -14z m-6 -41 c8 -13 6 -22 -12 -41 -12 -13
-22 -35 -22 -50 0 -68 -117 -366 -147 -375 -22 -6 -14 27 28 116 48 102 67
182 22 92 -16 -30 -39 -81 -52 -113 -39 -92 -45 -102 -66 -102 -24 0 -23 10 6
163 10 57 19 136 19 177 0 73 1 75 31 91 17 9 49 17 71 19 25 2 49 11 62 24
24 24 44 24 60 -1z m-569 -20 c-12 -42 -54 -123 -77 -148 -13 -14 -36 -42 -51
-63 -16 -21 -73 -90 -128 -154 -95 -111 -114 -139 -86 -127 18 8 161 180 218
265 60 87 76 105 85 96 13 -12 -26 -92 -67 -137 -22 -25 -55 -63 -72 -84 -18
-22 -51 -62 -74 -90 -24 -27 -43 -56 -43 -63 0 -16 -25 -29 -73 -37 -29 -6
-39 -4 -43 9 -10 24 11 58 117 190 53 66 121 154 150 195 68 95 131 170 142
170 4 0 5 -10 2 -22z m325 -35 c0 -5 -7 -64 -14 -133 -8 -69 -17 -160 -21
-202 -10 -112 -33 -117 -55 -13 -35 157 -49 236 -52 285 l-3 55 35 6 c52 9
110 10 110 2z m410 -181 c52 -96 128 -198 175 -235 19 -16 33 -32 30 -38 -7
-11 -228 -1 -262 12 -13 5 -23 15 -23 24 0 8 -9 15 -20 15 -23 0 -26 28 -9 79
16 45 35 38 67 -26 15 -31 34 -59 41 -61 10 -3 12 0 7 14 -15 36 -55 204 -62
255 -9 68 3 60 56 -39z m-3368 -161 c9 -18 10 -25 1 -28 -6 -2 -24 -15 -40
-29 -36 -31 -53 -27 -69 16 -13 37 -19 152 -7 163 7 8 94 -85 115 -122z m2572
102 c-12 -53 -174 -253 -204 -253 -11 0 -20 3 -20 8 0 4 29 39 66 77 36 39 81
98 100 133 37 65 70 85 58 35z m92 -156 c-7 -38 -20 -53 -51 -59 -31 -5 -29
24 6 71 35 50 56 44 45 -12z m-146 1 c0 -20 -38 -78 -56 -85 -8 -3 -20 -1 -27
6 -8 8 -1 21 28 51 41 42 55 49 55 28z m707 -44 c-9 -9 -28 6 -21 18 4 6 10 6
17 -1 6 -6 8 -13 4 -17z m943 -435 c14 -25 16 -23 -43 -38 -37 -9 -52 -9 -63
0 -34 28 -6 59 53 59 33 0 45 -5 53 -21z m-3434 -16 c47 -38 44 -56 -13 -81
-68 -30 -71 -23 -37 96 5 17 11 15 50 -15z"/>
<path d="M6791 4530 c14 -31 19 -36 19 -24 0 6 -7 19 -16 30 -14 18 -14 18 -3
-6z"/>
<path d="M5542 4502 c-35 -100 -36 -114 -3 -47 31 65 46 115 34 115 -5 0 -18
-31 -31 -68z"/>
<path d="M2701 3897 c-36 -12 -67 -28 -69 -36 -5 -16 4 -14 90 21 32 13 58 26
58 31 0 10 -8 9 -79 -16z"/>
<path d="M3180 3521 c0 -34 26 -101 40 -101 14 0 13 13 -6 76 -17 59 -34 71
-34 25z"/>
<path d="M3249 3472 c-6 -39 34 -184 56 -202 26 -21 27 -5 6 61 -12 35 -23 80
-26 101 -3 20 -12 39 -20 42 -8 3 -15 2 -16 -2z"/>
<path d="M3609 2850 c-61 -8 -79 -15 -79 -32 0 -7 17 -8 53 -3 28 4 115 11
192 14 85 4 139 10 138 16 -3 12 -223 16 -304 5z"/>
<path d="M3356 2811 c-15 -24 95 -29 114 -6 11 13 5 15 -48 15 -34 0 -63 -4
-66 -9z"/>
<path d="M6140 7495 c0 -3 17 -28 38 -57 20 -29 58 -86 84 -128 26 -41 57 -88
69 -105 l21 -30 -5 40 c-4 38 -21 68 -134 242 -19 29 -35 43 -50 43 -13 0 -23
-2 -23 -5z"/>
<path d="M6570 6100 c66 -53 335 -166 359 -151 7 5 -20 20 -71 38 -46 17 -135
54 -198 82 -63 28 -104 42 -90 31z"/>
<path d="M2460 2650 c-43 -38 -52 -52 -43 -61 22 -22 131 66 120 96 -9 22 -17
19 -77 -35z"/>
<path d="M2250 2644 c0 -3 21 -51 47 -105 46 -100 70 -126 58 -66 -5 24 3 15
33 -38 80 -144 245 -365 273 -365 15 0 10 27 -8 41 -9 8 -40 50 -70 94 -30 44
-72 105 -94 135 -47 66 -109 172 -109 189 0 20 -50 92 -61 86 -5 -4 -7 -12 -3
-18 3 -7 -7 3 -23 21 -26 30 -43 40 -43 26z"/>
<path d="M2505 2568 c-32 -17 -75 -61 -75 -75 0 -18 0 -18 66 22 32 19 69 36
83 37 14 1 33 2 41 4 8 1 21 2 28 3 7 1 10 6 7 11 -8 13 -125 12 -150 -2z"/>
<path d="M2758 2518 c-7 -18 18 -227 31 -260 13 -34 31 -45 31 -19 0 38 -41
276 -49 284 -5 5 -10 2 -13 -5z"/>
<path d="M2591 2453 c1 -30 113 -296 127 -301 20 -6 14 22 -21 105 -19 43 -46
108 -61 146 -27 64 -47 86 -45 50z"/>
<path d="M2664 2133 c12 -30 70 -102 84 -103 20 0 14 15 -29 69 -40 50 -67 67
-55 34z"/>
</g>
</svg>
